Coordinates
version=1
nRows=4
nColumns=114
inDegrees=yes

Units are S.I. units (second, meters, Newtons, ...)
If the header above contains a line with 'inDegrees', this indicates whether rotational values are in degrees (yes) or radians (no).

endheader 
time	pelvis_tilt	pelvis_list	pelvis_rotation	pelvis_tx	pelvis_ty	pelvis_tz	hip_flexion_l	hip_adduction_l	hip_rotation_l	hip_flexion_r	hip_adduction_r	hip_rotation_r	knee_angle_l	knee_angle_r	ankle_angle_l	ankle_angle_r	subtalar_angle_l	subtalar_angle_r	mtp_angle_l	mtp_angle_r	lumbar_extension	lumbar_bending	lumbar_rotation	arm_flex_l	arm_add_l	arm_rot_l	arm_flex_r	arm_add_r	arm_rot_r	elbow_flex_l	elbow_flex_r	pro_sup_l	pro_sup_r	addbrev_l/activation	addlong_l/activation	addmagDist_l/activation	addmagIsch_l/activation	addmagMid_l/activation	addmagProx_l/activation	bflh_l/activation	bfsh_l/activation	edl_l/activation	ehl_l/activation	fdl_l/activation	fhl_l/activation	gaslat_l/activation	gasmed_l/activation	glmax1_l/activation	glmax2_l/activation	glmax3_l/activation	glmed1_l/activation	glmed2_l/activation	glmed3_l/activation	glmin1_l/activation	glmin2_l/activation	glmin3_l/activation	grac_l/activation	iliacus_l/activation	perbrev_l/activation	perlong_l/activation	piri_l/activation	psoas_l/activation	recfem_l/activation	sart_l/activation	semimem_l/activation	semiten_l/activation	soleus_l/activation	tfl_l/activation	tibant_l/activation	tibpost_l/activation	vasint_l/activation	vaslat_l/activation	vasmed_l/activation	addbrev_r/activation	addlong_r/activation	addmagDist_r/activation	addmagIsch_r/activation	addmagMid_r/activation	addmagProx_r/activation	bflh_r/activation	bfsh_r/activation	edl_r/activation	ehl_r/activation	fdl_r/activation	fhl_r/activation	gaslat_r/activation	gasmed_r/activation	glmax1_r/activation	glmax2_r/activation	glmax3_r/activation	glmed1_r/activation	glmed2_r/activation	glmed3_r/activation	glmin1_r/activation	glmin2_r/activation	glmin3_r/activation	grac_r/activation	iliacus_r/activation	perbrev_r/activation	perlong_r/activation	piri_r/activation	psoas_r/activation	recfem_r/activation	sart_r/activation	semimem_r/activation	semiten_r/activation	soleus_r/activation	tfl_r/activation	tibant_r/activation	tibpost_r/activation	vasint_r/activation	vaslat_r/activation	vasmed_r/activation	
          6.65763158	        -24.69192573	         20.64185757	          9.67253507	         -3.41000737	          1.16002732	          0.23228060	          1.21967524	         -9.30260414	         -2.22010121	         35.32703435	          4.33997572	        -15.33418973	         25.92413174	         94.15273210	         26.12153646	         19.13492624	         11.57127336	        -18.13085534	         -0.27947883	          0.87151983	        -14.30554702	          7.41108002	        -14.45600806	         23.23567995	         -2.76095476	         23.13879456	        -29.72932972	        -38.81764724	         47.62780541	         81.41635139	         24.76847522	        103.76662703	         56.27058711	          0.03466634	          0.74477772	          0.04363696	          0.01509913	          0.05060135	          0.99999985	          0.12370048	          0.21238101	          0.12744753	          0.13088336	          0.13052740	          0.15840028	          0.10706749	          0.01003868	          0.07848511	          0.10511956	          0.97540772	          0.07778672	          0.03442477	          0.05301328	          0.07064174	          0.05198847	          0.99999935	          0.99999981	          0.09716614	          0.01231687	          0.03749129	          0.99999989	          0.99999993	          0.53252802	          0.99999989	          0.06121920	          0.08438257	          0.03029826	          0.07972518	          0.27610993	          0.36618147	          0.03750271	          0.05987004	          0.04250143	          0.43861570	          0.37594805	          0.96636030	          0.21447107	          0.99999960	          0.43861593	          0.01000040	          0.43861575	          0.66228085	          0.66228081	          0.14392651	          0.01000010	          0.02067492	          0.01625057	          0.01000006	          0.01000003	          0.01002215	          0.03701152	          0.01000004	          0.02451202	          0.30862644	          0.12741205	          0.05588493	          0.43861575	          0.43861573	          0.24909917	          0.02798150	          0.35583103	          0.43861573	          0.99999960	          0.43861612	          0.01000015	          0.01000075	          0.00999999	          0.34078162	          0.66228091	          0.12395525	          0.08375830	          0.28507755	          0.07656229	
          6.67789474	        -23.56881990	         14.18903400	         13.68733054	         -3.31388349	          1.13279621	          0.19494438	         -2.55576484	        -19.22973867	         -2.44036167	         49.01618500	          7.05695082	        -19.59395819	         17.35976337	         99.97458941	         19.36295122	         26.30465405	         14.00296454	        -19.95735231	         -0.09499619	          0.50942850	        -13.98590413	         20.94505357	        -14.76666711	         39.68524633	          5.62400924	         30.87239081	        -48.82846150	        -42.14798725	         23.19788380	         90.11182745	         38.37627571	        107.27670907	         64.36949442	          0.99999952	          0.99999993	          0.02889994	          0.01000000	          0.54407762	          0.99999996	          0.08192445	          0.14065589	          0.08440611	          0.08668173	          0.08644590	          0.19176429	          0.07090896	          0.01000014	          0.05197918	          0.06961866	          0.76036396	          0.05151665	          0.02279888	          0.03510968	          0.04678468	          0.03443098	          0.66228038	          0.99999987	          0.06435135	          0.01000041	          0.02482987	          0.66228125	          0.99999993	          0.35268305	          0.66228082	          0.04054430	          0.05588496	          0.03163237	          0.05280048	          0.18286236	          0.29318941	          0.07848584	          0.07848585	          0.07848771	          0.29048672	          0.24898314	          0.64000181	          0.14204006	          0.66228049	          0.29048689	          0.23385132	          0.29048692	          0.43861600	          0.43861592	          0.09532009	          0.07353723	          0.23208549	          0.02592703	          0.01000006	          0.01000002	          0.07968450	          0.02451202	          0.01000003	          0.01623386	          0.20439734	          0.08438255	          0.03701153	          0.29048677	          0.29048674	          0.16497392	          0.14584524	          0.38085913	          0.29048674	          0.86962733	          0.99086067	          0.01000001	          0.01000005	          0.01000014	          0.22569312	          0.43861598	          0.08209336	          0.09597674	          0.36603067	          0.12581131	
          6.69815789	        -22.46873120	          8.49307904	         16.54834946	         -3.21707173	          1.10402392	          0.15565445	         -4.74232645	        -26.35103585	         -4.09476839	         61.92320560	          6.30960184	        -22.60499222	         10.69842010	         99.75834412	         13.62822009	         26.25629193	         16.89212062	        -19.98295272	          0.10541780	          0.28840613	        -12.95498919	         34.58835024	        -14.44771950	         56.63398345	         11.97071591	         38.86744457	        -67.06810528	        -40.87906027	          2.51773175	         94.81816733	         52.54793426	        102.91292339	         71.02117546	          0.99999998	          1.00000000	          0.99999998	          0.05496546	          0.99999999	          0.99999999	          0.05425698	          0.09315400	          0.05590107	          0.22446797	          0.11887731	          0.15112728	          0.29168743	          0.06925997	          0.03442481	          0.04610710	          0.50357438	          0.03411849	          0.01509927	          0.02325246	          0.03098461	          0.02280298	          0.63012577	          0.99999996	          0.99999992	          0.01001253	          0.01644445	          0.70330347	          0.99999996	          0.23357518	          0.43861583	          0.02685171	          0.03701154	          0.02094960	          0.03496875	          0.52749833	          0.29218115	          0.05197968	          0.05197967	          0.05198091	          0.19238375	          0.16489673	          0.42386088	          0.09407042	          0.43861560	          0.19238387	          0.45457477	          0.19238416	          0.29048701	          0.29048697	          0.08199331	          0.04870264	          0.15370632	          0.11194159	          0.01000006	          0.01000004	          0.05277373	          0.01623384	          0.01000006	          0.01075141	          0.13536842	          0.05588495	          0.02451207	          0.19238379	          0.19238376	          0.23016707	          0.25359490	          0.25223577	          0.19238376	          0.57593750	          0.65622836	          0.01000006	          0.01000007	          0.01267274	          0.14947226	          0.29048696	          0.08597794	          0.06356379	          0.24241514	          0.08332258	
          6.71842105	        -21.74109805	          3.57387972	         18.41046310	         -3.11555602	          1.07646415	          0.11522695	         -5.82438817	        -29.92490430	         -5.81648493	         71.29448937	          3.16323103	        -23.70999358	          6.19422486	         93.80238958	         10.46098228	         21.76466064	         19.58234023	        -17.56648930	          0.16042775	          0.23237147	        -11.02091594	         48.42723019	        -14.26147634	         70.73830569	         14.15797922	         44.48740378	        -77.93364774	        -35.53575801	        -14.88749892	         98.08355023	         61.21839827	         96.20762337	         75.40334554	          0.99999997	          0.99999999	          0.99999993	          0.99999962	          0.99999998	          0.99999996	          0.03593336	          0.72624302	          0.33001076	          0.27596187	          0.09012823	          0.10008967	          0.26321690	          0.26671872	          0.02279889	          0.03053584	          0.33350760	          0.02259602	          0.01000002	          0.01539966	          0.02052055	          0.01510198	          0.41732015	          0.99999990	          0.99999999	          0.01000061	          0.01089094	          0.46578433	          0.99999998	          0.15469234	          0.29048681	          0.01778337	          0.02451205	          0.01387455	          0.02315913	          0.84313302	          0.19350661	          0.03442515	          0.03442514	          0.03442596	          0.12741205	          0.10920792	          0.28071491	          0.06230119	          0.29048666	          0.12741213	          0.30105631	          0.12741264	          0.24020033	          0.27230343	          0.05430283	          0.03225630	          0.13524294	          0.13031043	          0.01000010	          0.01000008	          0.20991929	          0.01075139	          0.01000028	          0.01000014	          0.08965191	          0.03701158	          0.01623406	          0.12741208	          0.12741205	          0.17841118	          0.22564062	          0.99999894	          0.12741205	          0.38143235	          0.43460754	          0.30917175	          0.02279348	          0.03639147	          0.09899264	          0.36605415	          0.05694169	          0.04209733	          0.27168052	          0.05518328	
